<?xml version="1.0" encoding="utf-8"?>
<!-- Generator: Adobe Illustrator 17.1.0, SVG Export Plug-In . SVG Version: 6.00 Build 0)  -->
<!DOCTYPE svg PUBLIC "-//W3C//DTD SVG 1.1//EN" "http://www.w3.org/Graphics/SVG/1.1/DTD/svg11.dtd">
<svg version="1.1" id="Layer_1" xmlns="http://www.w3.org/2000/svg" xmlns:xlink="http://www.w3.org/1999/xlink" x="0px" y="0px"
	 viewBox="0 520.2 612 272.2" enable-background="new 0 520.2 612 272.2" xml:space="preserve">
<g transform="scale(0.689655172413793)">
	<g transform="translate(0,320)">
		<path opacity="2.300000e-02" fill="none" stroke="#010101" stroke-width="0.23" enable-background="new    " d="M673.6,434.3
			c0,185.9-150.6,336.8-336.6,336.8S0.2,620.2,0.2,434.3"/>
		<path opacity="6.000000e-03" fill="none" stroke="#010101" stroke-width="6.000000e-02" enable-background="new    " d="
			M739.3,434.3c0,204-165.3,369.6-369.5,369.6S0.2,638.3,0.2,434.3"/>
		<path opacity="2.500000e-02" fill="none" stroke="#010101" stroke-width="0.25" enable-background="new    " d="M295.9,434.3
			c0,77.1-62.4,139.7-139.6,139.7S16.6,511.3,16.6,434.3"/>
		<path opacity="2.400000e-02" fill="none" stroke="#010101" stroke-width="0.24" enable-background="new    " d="M657.2,434.3
			c0,176.9-143.3,320.3-320.2,320.3S16.6,611.2,16.6,434.3"/>
		<path opacity="6.000000e-03" fill="none" stroke="#010101" stroke-width="6.000000e-02" enable-background="new    " d="
			M723,434.3c0,195.1-158.1,353.2-353.2,353.2S16.6,629.3,16.6,434.3"/>
		<path opacity="6.500000e-02" fill="none" stroke="#010101" stroke-width="0.65" enable-background="new    " d="M772.2,434.3
			c0,208.6-169.2,377.8-377.8,377.8S16.6,642.8,16.6,434.3"/>
		<path opacity="6.900000e-02" fill="none" stroke="#010101" stroke-width="0.69" enable-background="new    " d="M805,434.3
			c0,217.7-176.5,394.2-394.2,394.2S16.6,652,16.6,434.3"/>
		<path opacity="0.117" fill="none" stroke="#010101" stroke-width="1.17" enable-background="new    " d="M246.7,434.3
			c0,59-47.8,106.8-106.8,106.8S33.1,493.2,33.1,434.3"/>
		<path opacity="2.300000e-02" fill="none" stroke="#010101" stroke-width="0.23" enable-background="new    " d="M279.4,434.3
			c0,68.1-55.2,123.1-123.2,123.1S33.1,502.3,33.1,434.3"/>
		<path opacity="2.400000e-02" fill="none" stroke="#010101" stroke-width="0.24" enable-background="new    " d="M640.8,434.3
			c0,167.8-135.9,303.9-303.8,303.9S33.1,602.1,33.1,434.3"/>
		<path opacity="6.600000e-02" fill="none" stroke="#010101" stroke-width="0.66" enable-background="new    " d="M755.7,434.3
			c0,199.6-161.8,361.3-361.3,361.3S33.1,633.8,33.1,434.3"/>
		<path opacity="6.800000e-02" fill="none" stroke="#010101" stroke-width="0.68" enable-background="new    " d="M788.6,434.3
			c0,208.6-169.2,377.8-377.8,377.8S33.1,642.8,33.1,434.3"/>
		<path opacity="5.000000e-03" fill="none" stroke="#010101" stroke-width="5.000000e-02" enable-background="new    " d="
			M197.4,434.3c0,40.9-33.1,74-74,74s-74-33.2-74-74"/>
		<path opacity="9.000000e-03" fill="none" stroke="#010101" stroke-width="9.000000e-02" enable-background="new    " d="
			M213.7,434.3c0,45.3-36.8,82.1-82.1,82.1s-82.1-36.8-82.1-82.1"/>
		<path opacity="0.141" fill="none" stroke="#010101" stroke-width="1.41" enable-background="new    " d="M230.3,434.3
			c0,49.9-40.5,90.4-90.4,90.4s-90.4-40.5-90.4-90.4"/>
		<path opacity="2.300000e-02" fill="none" stroke="#010101" stroke-width="0.23" enable-background="new    " d="M624.3,434.3
			c0,158.8-128.7,287.4-287.5,287.4S49.5,593,49.5,434.3"/>
		<path opacity="4.800000e-02" fill="none" stroke="#010101" stroke-width="0.48" enable-background="new    " d="M739.3,434.3
			c0,190.4-154.5,344.9-344.9,344.9S49.5,624.7,49.5,434.3"/>
		<path opacity="6.000000e-03" fill="none" stroke="#010101" stroke-width="6.000000e-02" enable-background="new    " d="
			M181,434.3c0,31.8-25.8,57.5-57.5,57.5S65.9,466,65.9,434.3"/>
		<path opacity="1.100000e-02" fill="none" stroke="#010101" stroke-width="0.11" enable-background="new    " d="M197.3,434.3
			c0,36.3-29.4,65.7-65.7,65.7s-65.7-29.5-65.7-65.7"/>
		<path opacity="0.146" fill="none" stroke="#010101" stroke-width="1.46" enable-background="new    " d="M213.8,434.3
			c0,40.9-33.1,74-74,74s-74-33.2-74-74"/>
		<path opacity="9.000000e-03" fill="none" stroke="#010101" stroke-width="9.000000e-02" enable-background="new    " d="
			M230.2,434.3c0,45.3-36.8,82.1-82.1,82.1S66,479.6,66,434.3"/>
		<path opacity="2.200000e-02" fill="none" stroke="#010101" stroke-width="0.22" enable-background="new    " d="M608,434.3
			c0,149.8-121.3,271.1-271.1,271.1s-271-121.5-271-271.1"/>
		<path opacity="4.000000e-03" fill="none" stroke="#010101" stroke-width="4.000000e-02" enable-background="new    " d="
			M164.6,434.3c0,22.8-18.4,41.1-41.1,41.1s-41.2-18.5-41.2-41.1"/>
		<path opacity="1.200000e-02" fill="none" stroke="#010101" stroke-width="0.12" enable-background="new    " d="M180.9,434.3
			c0,27.2-22.1,49.3-49.3,49.3s-49.3-22.2-49.3-49.3"/>
		<path opacity="0.138" fill="none" stroke="#010101" stroke-width="1.38" enable-background="new    " d="M197.4,434.3
			c0,31.8-25.8,57.5-57.5,57.5S82.3,466,82.3,434.3"/>
		<path opacity="9.000000e-03" fill="none" stroke="#010101" stroke-width="9.000000e-02" enable-background="new    " d="
			M213.7,434.3c0,36.3-29.4,65.7-65.7,65.7s-65.7-29.5-65.7-65.7"/>
		<path opacity="9.000000e-03" fill="none" stroke="#010101" stroke-width="9.000000e-02" enable-background="new    " d="
			M230.3,434.3c0,40.9-33.1,74-74,74s-74-33.2-74-74"/>
		<path opacity="7.000000e-03" fill="none" stroke="#010101" stroke-width="7.000000e-02" enable-background="new    " d="
			M164.5,434.3c0,18.1-14.7,32.8-32.8,32.8s-32.9-14.7-32.9-32.8"/>
		<path opacity="9.100000e-02" fill="none" stroke="#010101" stroke-width="0.91" enable-background="new    " d="M181,434.3
			c0,22.8-18.4,41.1-41.1,41.1c-22.8,0-41.1-18.5-41.1-41.1"/>
		<path opacity="8.000000e-03" fill="none" stroke="#010101" stroke-width="8.000000e-02" enable-background="new    " d="
			M197.3,434.3c0,27.2-22.1,49.3-49.3,49.3s-49.2-22.2-49.2-49.3"/>
		<path opacity="7.000000e-03" fill="none" stroke="#010101" stroke-width="7.000000e-02" enable-background="new    " d="
			M213.8,434.3c0,31.8-25.8,57.5-57.5,57.5S98.8,466,98.8,434.3"/>
		<path opacity="4.000000e-03" fill="none" stroke="#010101" stroke-width="4.000000e-02" enable-background="new    " d="
			M673.6,434.3c0,158.8-128.7,287.4-287.5,287.4S98.8,593,98.8,434.3"/>
		<path opacity="0.268" fill="none" stroke="#010101" stroke-width="2.68" enable-background="new    " d="M739.3,434.3
			c0,176.9-143.3,320.3-320.2,320.3S98.8,611.2,98.8,434.3"/>
		<path opacity="5.800000e-02" fill="none" stroke="#010101" stroke-width="0.58" enable-background="new    " d="M246.6,434.3
			c0,36.3-29.4,65.7-65.7,65.7s-65.7-29.4-65.7-65.7"/>
		<path opacity="2.900000e-02" fill="none" stroke="#010101" stroke-width="0.29" enable-background="new    " d="M640.8,434.3
			c0,145.1-117.7,262.8-262.8,262.8S115.2,579.4,115.2,434.3"/>
		<path opacity="4.000000e-03" fill="none" stroke="#010101" stroke-width="4.000000e-02" enable-background="new    " d="
			M657.3,434.3c0,149.8-121.3,271.1-271.1,271.1s-271-121.5-271-271.1"/>
		<path opacity="0.295" fill="none" stroke="#010101" stroke-width="2.95" enable-background="new    " d="M722.9,434.3
			c0,167.8-135.9,303.9-303.8,303.9S115.2,602.1,115.2,434.3"/>
		<path opacity="5.600000e-02" fill="none" stroke="#010101" stroke-width="0.56" enable-background="new    " d="M230.2,434.3
			c0,27.2-22.1,49.3-49.3,49.3s-49.3-22.1-49.3-49.3"/>
		<path opacity="2.900000e-02" fill="none" stroke="#010101" stroke-width="0.29" enable-background="new    " d="M624.3,434.3
			c0,136-110.4,246.4-246.4,246.4S131.6,570.3,131.6,434.3"/>
		<path opacity="0.284" fill="none" stroke="#010101" stroke-width="2.84" enable-background="new    " d="M706.5,434.3
			c0,158.8-128.6,287.5-287.4,287.5S131.6,593,131.6,434.3"/>
		<path opacity="3.200000e-02" fill="none" stroke="#010101" stroke-width="0.32" enable-background="new    " d="M213.7,434.3
			c0,18.1-14.7,32.8-32.8,32.8S148,452.4,148,434.3"/>
		<path opacity="2.900000e-02" fill="none" stroke="#010101" stroke-width="0.29" enable-background="new    " d="M607.9,434.3
			c0,127-102.9,229.9-229.9,229.9S148,561.3,148,434.3"/>
		<path opacity="0.288" fill="none" stroke="#010101" stroke-width="2.88" enable-background="new    " d="M673.6,434.3
			c0,145.1-117.7,262.8-262.8,262.8S148,579.4,148,434.3"/>
		<path opacity="1.000000e-03" fill="none" stroke="#010101" stroke-width="1.000000e-02" enable-background="new    " d="
			M706.5,434.3c0,154.2-125.1,279.2-279.2,279.2S148,588.4,148,434.3"/>
		<path opacity="1.000000e-03" fill="none" stroke="#010101" stroke-width="1.000000e-02" enable-background="new    " d="
			M263,434.3c0,27.2-22.1,49.3-49.3,49.3s-49.3-22.1-49.3-49.3"/>
		<path opacity="5.000000e-03" fill="none" stroke="#010101" stroke-width="5.000000e-02" enable-background="new    " d="
			M312.4,434.3c0,40.9-33.1,74-74,74s-74-33.2-74-74"/>
		<path opacity="3.200000e-02" fill="none" stroke="#010101" stroke-width="0.32" enable-background="new    " d="M328.7,434.3
			c0,45.3-36.8,82.1-82.1,82.1s-82.1-36.8-82.1-82.1"/>
		<path opacity="9.000000e-03" fill="none" stroke="#010101" stroke-width="9.000000e-02" enable-background="new    " d="
			M591.5,434.3c0,117.9-95.6,213.5-213.5,213.5s-213.5-95.7-213.5-213.5"/>
		<path opacity="0.296" fill="none" stroke="#010101" stroke-width="2.96" enable-background="new    " d="M657.2,434.3
			c0,136-110.4,246.4-246.4,246.4S164.5,570.3,164.5,434.3"/>
		<path opacity="2.000000e-03" fill="none" stroke="#010101" stroke-width="2.000000e-02" enable-background="new    " d="
			M690,434.3c0,145.1-117.7,262.8-262.8,262.8S164.5,579.4,164.5,434.3"/>
		<path opacity="1.000000e-03" fill="none" stroke="#010101" stroke-width="1.000000e-02" enable-background="new    " d="
			M263,434.3c0,22.7-18.5,41.1-41.1,41.1s-41-18.5-41-41.1"/>
		<path opacity="1.000000e-03" fill="none" stroke="#010101" stroke-width="1.000000e-02" enable-background="new    " d="
			M279.4,434.3c0,27.2-22.1,49.3-49.3,49.3s-49.3-22.1-49.3-49.3"/>
		<path opacity="5.000000e-03" fill="none" stroke="#010101" stroke-width="5.000000e-02" enable-background="new    " d="
			M296,434.3c0,31.8-25.8,57.5-57.5,57.5S181,466,181,434.3"/>
		<path opacity="3.400000e-02" fill="none" stroke="#010101" stroke-width="0.34" enable-background="new    " d="M312.3,434.3
			c0,36.3-29.4,65.7-65.7,65.7s-65.7-29.4-65.7-65.7"/>
		<path opacity="1.900000e-02" fill="none" stroke="#010101" stroke-width="0.19" enable-background="new    " d="M328.8,434.3
			c0,40.9-33.1,74-74,74s-74-33.2-74-74"/>
		<path opacity="0.28" fill="none" stroke="#010101" stroke-width="2.8" enable-background="new    " d="M640.8,434.3
			c0,127-102.9,229.9-229.9,229.9s-230-102.9-230-229.9"/>
		<path opacity="2.000000e-03" fill="none" stroke="#010101" stroke-width="2.000000e-02" enable-background="new    " d="
			M657.2,434.3c0,131.5-106.5,238.2-238.1,238.2S180.9,565.8,180.9,434.3"/>
		<path opacity="1.000000e-03" fill="none" stroke="#010101" stroke-width="1.000000e-02" enable-background="new    " d="
			M263,434.3c0,18.1-14.7,32.8-32.8,32.8s-32.8-14.7-32.8-32.8"/>
		<path opacity="4.000000e-03" fill="none" stroke="#010101" stroke-width="4.000000e-02" enable-background="new    " d="
			M279.4,434.3c0,22.8-18.5,41.1-41.1,41.1s-41-18.5-41-41.1"/>
		<path opacity="3.300000e-02" fill="none" stroke="#010101" stroke-width="0.33" enable-background="new    " d="M295.9,434.3
			c0,27.2-22.1,49.3-49.3,49.3s-49.3-22.1-49.3-49.3"/>
		<path opacity="2.000000e-02" fill="none" stroke="#010101" stroke-width="0.2" enable-background="new    " d="M312.4,434.3
			c0,31.8-25.8,57.5-57.5,57.5s-57.5-25.8-57.5-57.5"/>
		<path opacity="9.000000e-03" fill="none" stroke="#010101" stroke-width="9.000000e-02" enable-background="new    " d="
			M328.7,434.3c0,36.3-29.4,65.7-65.7,65.7s-65.7-29.4-65.7-65.7"/>
		<path opacity="3.000000e-03" fill="none" stroke="#010101" stroke-width="3.000000e-02" enable-background="new    " d="
			M640.8,434.3c0,122.5-99.2,221.8-221.7,221.8s-221.8-99.4-221.8-221.8"/>
		<path opacity="2.000000e-02" fill="none" stroke="#010101" stroke-width="0.2" enable-background="new    " d="M279.4,434.3
			c0,18.1-14.7,32.8-32.8,32.8s-32.8-14.7-32.8-32.8"/>
		<path opacity="1.800000e-02" fill="none" stroke="#010101" stroke-width="0.18" enable-background="new    " d="M295.9,434.3
			c0,22.8-18.5,41.1-41.1,41.1s-41-18.5-41-41.1"/>
		<path opacity="1.000000e-02" fill="none" stroke="#010101" stroke-width="0.1" enable-background="new    " d="M312.3,434.3
			c0,27.2-22.1,49.3-49.3,49.3s-49.3-22.1-49.3-49.3"/>
		<path opacity="1.700000e-02" fill="none" stroke="#010101" stroke-width="0.17" enable-background="new    " d="M328.8,434.3
			c0,31.8-25.8,57.5-57.5,57.5s-57.5-25.8-57.5-57.5"/>
		<path opacity="8.000000e-03" fill="none" stroke="#010101" stroke-width="8.000000e-02" enable-background="new    " d="
			M295.9,434.3c0,18.1-14.7,32.8-32.8,32.8c-18.1,0-32.8-14.7-32.8-32.8"/>
		<path opacity="1.800000e-02" fill="none" stroke="#010101" stroke-width="0.18" enable-background="new    " d="M312.3,434.3
			c0,22.8-18.5,41.1-41.1,41.1c-22.6,0-41-18.5-41-41.1"/>
		<path opacity="1.000000e-03" fill="none" stroke="#010101" stroke-width="1.000000e-02" enable-background="new    " d="
			M361.6,434.3c0,36.3-29.4,65.7-65.7,65.7s-65.7-29.4-65.7-65.7"/>
		<path opacity="0.406" fill="none" stroke="#010101" stroke-width="4.06" enable-background="new    " d="M591.5,434.3
			c0,99.7-80.9,180.7-180.7,180.7s-180.6-81-180.6-180.7"/>
		<path opacity="3.000000e-03" fill="none" stroke="#010101" stroke-width="3.000000e-02" enable-background="new    " d="
			M345.1,434.3c0,27.2-22.1,49.3-49.3,49.3c-27.2,0-49.3-22.1-49.3-49.3"/>
		<path opacity="0.428" fill="none" stroke="#010101" stroke-width="4.28" enable-background="new    " d="M575.1,434.3
			c0,90.7-73.5,164.2-164.2,164.2S246.6,525,246.6,434.3"/>
		<path opacity="5.000000e-03" fill="none" stroke="#010101" stroke-width="5.000000e-02" enable-background="new    " d="
			M887.1,434.3c0,176.9-143.3,320.3-320.2,320.3S246.6,611.2,246.6,434.3"/>
		<path opacity="0.428" fill="none" stroke="#010101" stroke-width="4.28" enable-background="new    " d="M558.6,434.3
			c0,81.6-66.1,147.8-147.8,147.8S263,515.8,263,434.3"/>
		<path opacity="5.000000e-03" fill="none" stroke="#010101" stroke-width="5.000000e-02" enable-background="new    " d="
			M870.7,434.3c0,167.8-135.9,303.9-303.8,303.9S263,602.1,263,434.3"/>
		<path opacity="0.428" fill="none" stroke="#010101" stroke-width="4.28" enable-background="new    " d="M542.2,434.3
			c0,72.6-58.8,131.4-131.4,131.4s-131.4-58.9-131.4-131.4"/>
		<path opacity="2.000000e-03" fill="none" stroke="#010101" stroke-width="2.000000e-02" enable-background="new    " d="
			M854.3,434.3c0,158.8-128.7,287.4-287.5,287.4S279.4,593,279.4,434.3"/>
		<path opacity="0.427" fill="none" stroke="#010101" stroke-width="4.27" enable-background="new    " d="M525.8,434.3
			c0,63.4-51.5,115-115,115s-115-51.5-115-115"/>
		<path opacity="1.000000e-03" fill="none" stroke="#010101" stroke-width="1.000000e-02" enable-background="new    " d="
			M838,434.3c0,149.8-121.3,271.1-271.1,271.1s-271-121.5-271-271.1"/>
		<path opacity="4.500000e-02" fill="none" stroke="#010101" stroke-width="0.45" enable-background="new    " d="M887.1,434.3
			c0,163.3-132.4,295.6-295.6,295.6S295.9,597.5,295.9,434.3"/>
		<path opacity="4.400000e-02" fill="none" stroke="#010101" stroke-width="0.44" enable-background="new    " d="M870.7,434.3
			c0,154.2-125.1,279.2-279.2,279.2S312.3,588.4,312.3,434.3"/>
		<path opacity="0.417" fill="none" stroke="#010101" stroke-width="4.17" enable-background="new    " d="M492.9,434.3
			c0,45.3-36.8,82.1-82.1,82.1s-82.1-36.8-82.1-82.1"/>
		<path opacity="1.000000e-02" fill="none" stroke="#010101" stroke-width="0.1" enable-background="new    " d="M854.3,434.3
			c0,145.1-117.7,262.8-262.8,262.8S328.7,579.4,328.7,434.3"/>
		<path opacity="0.429" fill="none" stroke="#010101" stroke-width="4.29" enable-background="new    " d="M476.5,434.3
			c0,36.3-29.4,65.7-65.7,65.7s-65.7-29.4-65.7-65.7"/>
		<path opacity="0.426" fill="none" stroke="#010101" stroke-width="4.26" enable-background="new    " d="M460.1,434.3
			c0,27.2-22.1,49.3-49.3,49.3c-27.2,0-49.3-22.1-49.3-49.3"/>
		<path opacity="0.485" fill="none" stroke="#010101" stroke-width="4.85" enable-background="new    " d="M854.3,434.3
			c0,136-110.4,246.4-246.4,246.4S361.6,570.3,361.6,434.3"/>
		<path opacity="0.408" fill="none" stroke="#010101" stroke-width="4.08" enable-background="new    " d="M443.7,434.3
			c0,18.1-14.7,32.8-32.8,32.8c-18.1,0-32.8-14.7-32.8-32.8"/>
		<path opacity="0.569" fill="none" stroke="#010101" stroke-width="5.69" enable-background="new    " d="M837.9,434.3
			c0,127-102.9,229.9-229.9,229.9S378,561.3,378,434.3"/>
		<path opacity="0.57" fill="none" stroke="#010101" stroke-width="5.7" enable-background="new    " d="M821.4,434.3
			c0,117.9-95.6,213.5-213.5,213.5s-213.5-95.7-213.5-213.5"/>
		<path opacity="0.569" fill="none" stroke="#010101" stroke-width="5.69" enable-background="new    " d="M805,434.3
			c0,108.9-88.2,197.1-197.1,197.1s-197.1-88.3-197.1-197.1"/>
		<path opacity="0.57" fill="none" stroke="#010101" stroke-width="5.7" enable-background="new    " d="M788.6,434.3
			c0,99.7-80.9,180.7-180.7,180.7s-180.6-81-180.6-180.7"/>
		<path opacity="0.571" fill="none" stroke="#010101" stroke-width="5.71" enable-background="new    " d="M772.2,434.3
			c0,90.7-73.5,164.2-164.2,164.2S443.7,525,443.7,434.3"/>
		<path opacity="1.400000e-02" fill="none" stroke="#010101" stroke-width="0.14" enable-background="new    " d="M722.9,434.3
			c0,72.6-58.8,131.4-131.4,131.4s-131.4-58.9-131.4-131.4"/>
		<path opacity="0.519" fill="none" stroke="#010101" stroke-width="5.19" enable-background="new    " d="M755.7,434.3
			c0,81.6-66.2,147.8-147.8,147.8s-147.8-66.3-147.8-147.8"/>
		<path opacity="0.348" fill="none" stroke="#010101" stroke-width="3.48" enable-background="new    " d="M706.5,434.3
			c0,63.4-51.5,115-115,115s-115-51.5-115-115"/>
		<path opacity="0.184" fill="none" stroke="#010101" stroke-width="1.84" enable-background="new    " d="M739.3,434.3
			c0,72.6-58.8,131.4-131.4,131.4s-131.4-58.9-131.4-131.4"/>
		<path opacity="0.54" fill="none" stroke="#010101" stroke-width="5.4" enable-background="new    " d="M690,434.3
			c0,54.4-44.1,98.5-98.5,98.5c-54.4,0-98.5-44.1-98.5-98.5"/>
		<path opacity="4.000000e-03" fill="none" stroke="#010101" stroke-width="4.000000e-02" enable-background="new    " d="
			M722.9,434.3c0,63.4-51.5,115-115,115s-115-51.5-115-115"/>
		<path opacity="0.566" fill="none" stroke="#010101" stroke-width="5.66" enable-background="new    " d="M673.6,434.3
			c0,45.3-36.8,82.1-82.1,82.1c-45.3,0-82.1-36.8-82.1-82.1"/>
		<path opacity="2.000000e-03" fill="none" stroke="#010101" stroke-width="2.000000e-02" enable-background="new    " d="
			M706.5,434.3c0,54.4-44.1,98.5-98.5,98.5c-54.4,0-98.5-44.1-98.5-98.5"/>
		<path opacity="0.568" fill="none" stroke="#010101" stroke-width="5.68" enable-background="new    " d="M657.2,434.3
			c0,36.3-29.4,65.7-65.7,65.7c-36.3,0-65.7-29.4-65.7-65.7"/>
		<path opacity="0.554" fill="none" stroke="#010101" stroke-width="5.54" enable-background="new    " d="M640.8,434.3
			c0,27.2-22.1,49.3-49.3,49.3c-27.2,0-49.3-22.1-49.3-49.3"/>
		<path opacity="1.000000e-03" fill="none" stroke="#010101" stroke-width="1.000000e-02" enable-background="new    " d="
			M723,434.3c0,40.9-33.2,74-74,74c-40.9,0-74-33.2-74-74"/>
		<path opacity="1.000000e-03" fill="none" stroke="#010101" stroke-width="1.000000e-02" enable-background="new    " d="
			M706.5,434.3c0,31.8-25.7,57.5-57.4,57.5c-31.8,0-57.5-25.8-57.5-57.5"/>
		<path opacity="1.000000e-03" fill="none" stroke="#010101" stroke-width="1.000000e-02" enable-background="new    " d="
			M689.9,434.3c0,22.8-18.4,41.1-41,41.1c-22.7,0-41-18.5-41-41.1"/>
		<path opacity="9.000000e-03" fill="none" stroke="#010101" stroke-width="9.000000e-02" enable-background="new    " d="
			M854.4,434.3c0,59-47.9,106.8-106.8,106.8c-59,0-106.8-47.9-106.8-106.8"/>
		<path opacity="1.100000e-02" fill="none" stroke="#010101" stroke-width="0.11" enable-background="new    " d="M837.9,434.3
			c0,49.9-40.5,90.4-90.4,90.4c-49.8,0-90.3-40.5-90.3-90.4"/>
		<path opacity="1.100000e-02" fill="none" stroke="#010101" stroke-width="0.11" enable-background="new    " d="M821.4,434.3
			c0,40.9-33.2,74-74,74s-73.9-33.2-73.9-74"/>
		<path opacity="8.000000e-03" fill="none" stroke="#010101" stroke-width="8.000000e-02" enable-background="new    " d="
			M837.8,434.3c0,31.8-25.8,57.5-57.4,57.5c-31.7,0-57.4-25.8-57.4-57.5"/>
		<path opacity="8.000000e-03" fill="none" stroke="#010101" stroke-width="8.000000e-02" enable-background="new    " d="
			M821.3,434.3c0,22.8-18.4,41.1-41,41.1c-22.7,0-41-18.5-41-41.1"/>
		<path opacity="2.000000e-03" fill="none" stroke="#010101" stroke-width="2.000000e-02" enable-background="new    " d="
			M854.3,434.3c0,27.2-22.1,49.3-49.3,49.3c-27.2,0-49.3-22.1-49.3-49.3"/>
		<path opacity="3.000000e-03" fill="none" stroke="#010101" stroke-width="3.000000e-02" enable-background="new    " d="
			M837.9,434.3c0,18.1-14.7,32.8-32.8,32.8c-18.1,0-32.8-14.7-32.8-32.8"/>
		<path opacity="2.000000e-03" fill="none" stroke="#010101" stroke-width="2.000000e-02" enable-background="new    " d="
			M870.7,434.3c0,27.2-22.1,49.3-49.3,49.3c-27.2,0-49.3-22.1-49.3-49.3"/>
		<path opacity="4.300000e-02" fill="none" stroke="#010101" stroke-width="0.43" enable-background="new    " d="M887.1,434.3
			c0,31.8-25.7,57.5-57.4,57.5s-57.5-25.8-57.5-57.5"/>
		<path opacity="1.000000e-03" fill="none" stroke="#010101" stroke-width="1.000000e-02" enable-background="new    " d="
			M854.3,434.3c0,18.1-14.7,32.8-32.8,32.8s-32.8-14.7-32.8-32.8"/>
		<path opacity="3.800000e-02" fill="none" stroke="#010101" stroke-width="0.38" enable-background="new    " d="M870.6,434.3
			c0,22.8-18.4,41.1-41,41.1c-22.7,0-41-18.5-41-41.1"/>
	</g>
</g>
</svg>
